<?xml version="1.0" standalone="no"?><!DOCTYPE svg PUBLIC "-//W3C//DTD SVG 1.1//EN" "http://www.w3.org/Graphics/SVG/1.1/DTD/svg11.dtd"><svg t="1722675120682" class="icon" viewBox="0 0 1024 1024" version="1.1" xmlns="http://www.w3.org/2000/svg" p-id="10759" xmlns:xlink="http://www.w3.org/1999/xlink" width="200" height="200"><path d="M513.128507 456.121827a189.691691 189.691691 0 1 0-190.409832-189.657494 191.196367 191.196367 0 0 0 190.409832 189.657494z m-165.480097 18.056105a266.053967 266.053967 0 1 1 431.807641-208.876302 269.815656 269.815656 0 0 1-100.881645 208.876302 454.069997 454.069997 0 0 1 328.668982 435.80871 114.663104 114.663104 0 0 1-114.457922 114.013358H131.180337A114.663104 114.663104 0 0 1 16.722415 909.986642a459.883516 459.883516 0 0 1 330.925995-435.80871z m546.265563 474.177932a38.88218 38.88218 0 0 0 38.540208-38.369222 380.922255 380.922255 0 0 0-380.819663-379.349185h-75.917713A380.922255 380.922255 0 0 0 94.897141 909.986642a38.88218 38.88218 0 0 0 38.540209 38.369222z" p-id="10760"></path></svg>