<?xml version="1.0" standalone="no"?><!DOCTYPE svg PUBLIC "-//W3C//DTD SVG 1.1//EN" "http://www.w3.org/Graphics/SVG/1.1/DTD/svg11.dtd"><svg t="1706443954290" class="icon" viewBox="0 0 1024 1024" version="1.1" xmlns="http://www.w3.org/2000/svg" p-id="5245" xmlns:xlink="http://www.w3.org/1999/xlink" width="200" height="200"><path d="M512 66.4C264.6 66.4 64 265.9 64 512c0 246.1 200.6 445.6 448 445.6S960 758.1 960 512c0-246.1-200.6-445.6-448-445.6zM325.3 336.1h373.5c17 0 32.2 7.4 42.9 19.1L512.2 494.5 286.8 350.9c10.3-9.1 23.7-14.8 38.5-14.8z m-58.4 58.4c0-6.6 1.4-12.9 3.4-18.9l162.9 103.8-166.3 144.1v-229z m431.8 293.4H325.3c-22.6 0-42-13-51.6-31.8 1-0.5 2.1-1 3-1.8L459.3 496l44.7 28.5c0.1 0.1 0.3 0.1 0.4 0.2 0.8 0.5 1.6 0.8 2.5 1.1 0.4 0.1 0.8 0.4 1.2 0.5 1.2 0.3 2.4 0.5 3.6 0.5h0.6c1.2 0 2.3-0.2 3.4-0.5 0.4-0.1 0.8-0.3 1.2-0.5 0.8-0.3 1.6-0.6 2.4-1 0.1-0.1 0.2-0.1 0.3-0.2l53.1-32.2L753.5 649c-8.1 22.6-29.4 38.9-54.8 38.9z m58.4-75L599.4 476.3l156.1-94.8c1 4.2 1.6 8.5 1.6 13v218.4z" fill="#4DA8EF" p-id="5246"></path></svg>