<?xml version="1.0" standalone="no"?><!DOCTYPE svg PUBLIC "-//W3C//DTD SVG 1.1//EN" "http://www.w3.org/Graphics/SVG/1.1/DTD/svg11.dtd"><svg t="1702886750169" class="icon" viewBox="0 0 1024 1024" version="1.1" xmlns="http://www.w3.org/2000/svg" p-id="7977" xmlns:xlink="http://www.w3.org/1999/xlink" width="16" height="16"><path d="M821.8112 934.912H202.1888c-68.608 0-124.2112-55.6032-124.2112-124.2112V414.6176c0-68.608 55.6032-124.2112 124.2112-124.2112h619.6224c68.608 0 124.2112 55.6032 124.2112 124.2112v396.0832c0 68.608-55.6032 124.2112-124.2112 124.2112z" fill="#F85F69" p-id="7978"></path><path d="M228.352 405.9136a40.8064 40.8064 0 0 1-30.1568-13.2608 40.9088 40.9088 0 0 1 2.4576-57.856l250.0608-229.888c34.9184-32.1024 87.6544-32.2048 122.6752-0.256l241.408 220.2112c16.6912 15.2576 17.92 41.1648 2.6624 57.856-15.2576 16.6912-41.1648 17.92-57.856 2.6624L518.144 165.1712c-3.4304-3.1232-8.6016-3.1232-12.032 0l-250.0608 229.888a40.73984 40.73984 0 0 1-27.6992 10.8544z" fill="#F85F69" p-id="7979"></path><path d="M256.0512 395.1104l113.8688-104.704H248.8832l-48.2816 44.3904c-16.64 15.3088-17.7664 41.216-2.4576 57.856a40.8064 40.8064 0 0 0 30.1568 13.2608 40.96 40.96 0 0 0 27.7504-10.8032zM814.7968 324.864l-37.7856-34.4576h-121.5488l104.1408 94.976c16.6912 15.2576 42.5984 14.0288 57.856-2.6624 15.2064-16.6912 14.0288-42.5984-2.6624-57.856z" fill="#F33B3D" p-id="7980"></path><path d="M293.6832 612.6592m-52.9408 0a52.9408 52.9408 0 1 0 105.8816 0 52.9408 52.9408 0 1 0-105.8816 0Z" fill="#FFFFFF" p-id="7981"></path><path d="M507.7504 612.6592m-52.9408 0a52.9408 52.9408 0 1 0 105.8816 0 52.9408 52.9408 0 1 0-105.8816 0Z" fill="#FFFFFF" p-id="7982"></path><path d="M727.4496 612.6592m-52.9408 0a52.9408 52.9408 0 1 0 105.8816 0 52.9408 52.9408 0 1 0-105.8816 0Z" fill="#FFFFFF" p-id="7983"></path></svg>