<?xml version="1.0" standalone="no"?><!DOCTYPE svg PUBLIC "-//W3C//DTD SVG 1.1//EN" "http://www.w3.org/Graphics/SVG/1.1/DTD/svg11.dtd"><svg t="1707226216328" class="icon" viewBox="0 0 1024 1024" version="1.1" xmlns="http://www.w3.org/2000/svg" p-id="9292" xmlns:xlink="http://www.w3.org/1999/xlink" width="200" height="200"><path d="M187.392 70.656q28.672 0 48.64 19.456T256 138.24v52.224q0 28.672-19.968 48.64t-48.64 19.968H133.12q-27.648 0-47.616-19.968t-19.968-48.64V138.24q0-28.672 19.968-48.128t47.616-19.456h54.272z m702.464 0q27.648 0 47.616 19.456t19.968 48.128v52.224q0 28.672-19.968 48.64t-47.616 19.968H452.608q-28.672 0-48.64-19.968T384 190.464V138.24q0-28.672 19.968-48.128t48.64-19.456h437.248zM187.392 389.12q28.672 0 48.64 19.968T256 457.728v52.224q0 27.648-19.968 47.616t-48.64 19.968H133.12q-27.648 0-47.616-19.968t-19.968-47.616v-52.224q0-28.672 19.968-48.64t47.616-19.968h54.272z m702.464 0q27.648 0 47.616 19.968t19.968 48.64v52.224q0 27.648-19.968 47.616t-47.616 19.968H452.608q-28.672 0-48.64-19.968T384 509.952v-52.224q0-28.672 19.968-48.64t48.64-19.968h437.248zM187.392 708.608q28.672 0 48.64 19.968T256 776.192v52.224q0 28.672-19.968 48.64t-48.64 19.968H133.12q-27.648 0-47.616-19.968t-19.968-48.64v-52.224q0-27.648 19.968-47.616t47.616-19.968h54.272z m702.464 0q27.648 0 47.616 19.968t19.968 47.616v52.224q0 28.672-19.968 48.64t-47.616 19.968H452.608q-28.672 0-48.64-19.968T384 828.416v-52.224q0-27.648 19.968-47.616t48.64-19.968h437.248z" fill="#515151" p-id="9293"></path></svg>