<svg t="1728050105935" class="icon" viewBox="0 0 1024 1024" version="1.1" xmlns="http://www.w3.org/2000/svg" p-id="8606" width="200" height="200"><path d="M903.168 65.024H130.56c-41.472 0-76.8 35.328-76.8 76.8v807.424c0 10.24 4.608 18.944 12.8 24.064 4.608 2.56 9.728 4.096 15.36 4.096 4.608 0 9.216-1.024 13.824-3.072L304.128 860.16h599.04c48.128 0 76.8-36.352 76.8-71.68V141.824c-0.512-41.984-35.328-76.8-76.8-76.8zM146.944 171.52c0-8.704 5.12-18.944 18.944-18.944h707.072c8.704 0 18.944 5.12 18.944 18.944v581.632c0 8.704-5.12 18.944-18.944 18.944H263.168l-112.64 56.32h-1.024c-1.536-1.024-2.56-3.072-2.56-4.608V171.52z" p-id="8607"></path><path d="M225.792 408.576h451.584c25.6 0 41.472-24.064 41.472-46.592 0-20.48-14.336-41.472-41.472-41.472H225.792c-22.016 0-41.472 26.112-41.472 46.592 0 21.504 19.968 41.472 41.472 41.472zM225.792 599.552h195.584c21.504 0 41.472-19.968 41.472-41.472 0-20.48-14.336-41.472-41.472-41.472H225.792c-21.504 0-41.472 19.968-41.472 41.472 0 20.48 14.336 41.472 41.472 41.472z" p-id="8608"></path></svg>